<svg viewBox="0 0 23 23" fill="none" xmlns="http://www.w3.org/2000/svg">
<path fill-rule="evenodd" clip-rule="evenodd" d="M11.6001 7.80859C10.6574 7.80859 9.75509 8.23047 9.08892 8.90429C8.42278 9.57909 8.04754 10.4228 8.04501 11.4346C8.04754 12.3623 8.42279 13.206 9.08892 13.8808C9.75509 14.5547 10.6574 14.9765 11.6001 14.9765C12.542 14.9765 13.4452 14.5547 14.1113 13.8808C14.7775 13.206 15.1527 12.3623 15.1544 11.4346C15.1527 10.4228 14.7775 9.57909 14.1113 8.90429C13.4452 8.23046 12.542 7.80859 11.6001 7.80859ZM22.2604 11.4346C22.2604 9.91699 22.2747 8.4834 22.1921 6.96582C22.1086 5.2793 21.7199 3.76172 20.4719 2.49609C19.2214 1.31543 17.7094 0.894529 16.0019 0.809569C14.5304 0.724609 13.0716 0.724609 11.6027 0.724609C10.1304 0.724609 8.67239 0.724609 7.20261 0.809569C5.49588 0.894529 3.98142 1.31543 2.73343 2.49609C1.48203 3.76172 1.09583 5.27929 1.01318 6.96582C0.93054 8.4834 0.9432 9.91699 0.9432 11.4346C0.9432 12.8682 0.92971 14.3018 1.01232 15.8193C1.09499 17.5059 1.48455 19.0234 2.73257 20.2881C3.98309 21.5537 5.49502 21.8906 7.2026 21.9746C8.67321 22.0596 10.132 22.0596 11.601 22.0596C13.0732 22.0596 14.5329 22.0596 16.0019 21.9746C17.7086 21.8906 19.2231 21.5537 20.4711 20.2881C21.7224 19.0234 22.1078 17.5059 22.1912 15.8193C22.2764 14.3018 22.2604 12.8682 22.2604 11.4346ZM11.6001 16.831C10.8808 16.831 10.1691 16.7461 9.50552 16.4941C8.84185 16.1572 8.23809 15.8193 7.72961 15.2285C7.22198 14.7236 6.81893 14.1328 6.54489 13.458C6.26999 12.8682 6.12997 12.1094 6.13086 11.4346C6.12997 10.6758 6.27081 10 6.54489 9.32617C6.81976 8.65234 7.22198 8.06152 7.73047 7.55566C8.2381 7.0498 8.84186 6.62695 9.50552 6.375C10.17 6.03906 10.8817 5.9541 11.6001 5.9541C12.3186 5.9541 13.0303 6.03906 13.6939 6.375C14.3575 6.62695 14.9613 7.0498 15.4689 7.55566C15.9774 8.06152 16.3805 8.65234 16.6545 9.32617C16.9294 10 17.0702 10.6758 17.0686 11.4346C17.0702 12.1094 16.9294 12.8682 16.6545 13.458C16.3805 14.1328 15.9774 14.7236 15.4689 15.2285C14.9613 15.8193 14.3575 16.1572 13.6939 16.4941C13.0303 16.7461 12.3186 16.8311 11.6001 16.8311V16.831ZM17.2928 6.96582C17.1251 6.96582 16.959 6.96582 16.8038 6.88184C16.6486 6.79688 16.5078 6.71192 16.3889 6.62696C16.2708 6.45997 16.1764 6.37501 16.1123 6.20606C16.0482 6.03907 16.0154 5.86915 16.0154 5.7002C16.0154 5.0254 16.5862 4.43555 17.2929 4.43555C17.5028 4.43555 17.7103 4.51953 17.8958 4.6045C18.0813 4.68848 18.2399 4.85743 18.357 5.0254C18.4743 5.19532 18.5459 5.36329 18.5662 5.61622C18.5873 5.78419 18.5552 6.03907 18.4743 6.20606C18.3782 6.45997 18.2146 6.62696 18.0037 6.79688C17.7937 6.88184 17.5467 6.96583 17.2937 6.96583L17.2928 6.96582Z" fill="white"/>
</svg>
