<svg viewBox="0 0 24 24" fill="none" xmlns="http://www.w3.org/2000/svg">
<mask id="mask0_0_3554" style="mask-type:alpha" maskUnits="userSpaceOnUse" x="0" y="0" width="24" height="24">
<rect x="0.820312" y="0.724609" width="22.7404" height="22.7405" fill="black"/>
</mask>
<g mask="url(#mask0_0_3554)">
<path fill-rule="evenodd" clip-rule="evenodd" d="M23.5609 2.41113V21.8057C23.5609 22.2285 23.3847 22.6494 23.071 22.9863C22.7573 23.3252 22.3323 23.4922 21.8888 23.4922H2.49246C2.04974 23.4922 1.6239 23.3252 1.31024 22.9863C0.997402 22.6494 0.821133 22.2285 0.820312 21.8057V2.41113C0.820312 2.1582 0.863313 1.99023 0.947633 1.7373C1.03195 1.56835 1.15506 1.40039 1.31024 1.23144C1.46539 1.06249 1.65005 0.979489 1.85245 0.894529C2.05567 0.809569 2.2732 0.724609 2.49246 0.724609H21.8888C22.1088 0.724609 22.3264 0.809569 22.5288 0.894529C22.732 0.979489 22.9158 1.0625 23.0718 1.23144C23.227 1.40039 23.3501 1.56835 23.4336 1.7373C23.5179 1.99023 23.5609 2.1582 23.5609 2.41113H23.5609ZM7.5089 9.41211H4.1646V20.1191H7.5089V9.41211ZM7.80993 5.78418C7.81164 5.53125 7.76357 5.2793 7.66827 5.02539C7.57302 4.77344 7.43301 4.60449 7.25509 4.35254C7.07803 4.18262 6.86636 4.09766 6.6336 3.92969C6.40087 3.84473 6.15045 3.84473 5.89749 3.84473H5.83676C5.32913 3.84473 4.84512 4.01368 4.48926 4.43555C4.13343 4.77344 3.93442 5.2793 3.93442 5.78418C3.93442 6.29102 4.13343 6.71191 4.48926 7.13477C4.84513 7.47071 5.32913 7.72559 5.83676 7.72559C6.08975 7.72559 6.34186 7.64063 6.57797 7.55567C6.81408 7.47071 7.02997 7.30274 7.21295 7.13477C7.3959 6.96582 7.54352 6.79688 7.64554 6.54395C7.74756 6.29102 7.80405 6.03907 7.80994 5.78418H7.80993ZM20.2175 13.6269C20.2175 10.4228 18.1709 9.15722 16.137 9.15722C15.4717 9.15722 14.8089 9.24218 14.2144 9.5791C13.6207 9.91699 13.1165 10.3389 12.753 10.9287H12.6594V9.41211H9.51497V20.1191H12.8593V14.4707C12.8112 13.8809 12.995 13.29 13.3711 12.8682C13.7464 12.3623 14.2835 12.1094 14.8662 12.0254H14.9927C16.0569 12.0254 16.8462 12.6992 16.8462 14.3857V20.1191H20.1905L20.2166 13.6269H20.2175Z" fill="white"/>
</g>
</svg>
